<svg data-name="Layer 1" xmlns="http://www.w3.org/2000/svg" viewBox="0 0 567.12 567.12">
<path d="M283.56 5.8C130.15 5.8 5.8 130.16 5.8 283.56s124.35 277.76 277.76 277.76S561.32 437 561.32 283.56 437 5.8 283.56 5.8zm0 532.42c-140.65 0-254.66-114-254.66-254.66S142.91 28.9 283.56 28.9s254.66 114 254.66 254.66S424.2 538.22 283.56 538.22z" fill-opacity=".99" fill-rule="evenodd"/><path d="M81.28 335.74c-.2.89-11.66-6.12-12.15-6.42-20.56-12.59-36.7-46.63-33.92-72.32 5.51-51 43.86-87.83 84.52-74.25 14.14 4.73 27.32 23.69 43.21 27.7s27.62-14.46 39.24-7.25c16.41 10.16 27.77 56.75 47.51 68.76 4 2.42 50.66 15.86 48.4 10.87 13.79 30.38-56.93 63.31-66.56 72.93-29.93 29.91-24.83 58-49.85 92.75-72.24 100.13-62.42-91.22-100.4-112.77z"/><path d="M520.62 213.63c1.37-15.41-10.53-27.9-15.58-41-11-28.53-10.89-41.19-28.79-61.45C457.43 89.84 428.6 60.33 401.43 53c-38.26-10.29-37.73 17.33-75 28-15.72 4.5-66.69 13-81.93 10.49-15.74-2.63-16.79-20.37-31-17.48-4.2.85-11.51 7.26-18.25 11.7-7.92 5.23-21.23 21.21-8 33.07 14.17 12.67 20.51-28.14 24.17-22.68 10.51 15.72-30.52 39.15-45.68 42.63-16.69 3.83-39-1.85-53.86 10.36-14.38 11.81-21.13 25.25 5.39 21.3 9.76-1.45 10-9.54 19.22-8.61 21.44 2.17-3.14 19.95 2.11 25.2 13.62 13.62 14.33-18.68 15.51-20.25 7.17-9.57 17.69 26.83 20.68 27.57 6.79 1.7 18.57-34 31.25-34.38 34.82-1.07-6.82 37.94-6.7 38.69 1.36 8.13 53.14 47.25 61.26 56.79 21.4 25.14 4.47 31.25 45.62 11.2 28.64-14 47.43-18.24 25.1-43.41.82.93-88.85-28.14-52.21-28.23 8 0 65.87 34.27 73.5 42.29 14.81 15.55 27.71 74.16 38.44 81.12 22.84 14.84 24.27-33.1 39.64-45.66 17.94-14.66 21.42-6.69 35.32 1.29 17.5 10.05 30 43 42.16 16.63 6-13-5.41-35.61-3-47.72 1.83-8.91 14.29-16.23 15.45-29.28zm-242.41-49c-5.06 6.33-5.82-3.38-7.69-4.78-1.7-1.28-4.79-2.52-5.41-4.68-.79-2.78-2.33-8.47-.21-11.12 1.58-2 6-2.6 6.87-3.74a33.06 33.06 0 0 1 2.49-3.12c.69-.69 2.27-2.13 2.91-.63 2 4.69-1.43 8.6-2.29 12.89-.69 3.55 6.83 10.84 3.33 15.22zm10.4-20.79c-.76.76-4.54 4.5-5.2 1.87-.47-1.86 3.79-8.2 4.88-6.13.71 1.42 1.81 2.81.32 4.3z"/><path d="M414.36 323.57c-1.18-1-10.16 16.23-9.48 19 1.76 7.06 9.51.26 10.34-3.88.46-2.29-1.62-5.86-.86-7.75 1.64-4.26 3.69-4.21 0-7.37zM490.61 324.87c-.66 1.3 4.81-12.08 6.46-12.5 2-.49 5.91 2.39 7.32 3.45 1.07.8 3.61-.27 4.31.43 3.51 3.5 1.73 7.79 2.59 12.06.55 2.76 3.64 3.37 4.31 6 1.83 7.34 5.83 17.36 4.3 25-.53 2.69.84 7.68-2.58 9.05-7 2.81-4.05-6.81-6-10.77-1.6-3.2-5.56-5.86-6.46-9.48s1-6.72-.44-10.34c-1.16-2.91-11.39-12.22-12.06-14.22-.25-.74 1.87-5.74 2.16-6.89M529.17 325.94c3.56-7.06.91-16.25 4.52-23.47 1.23-2.47 5-6.83 8.18-6 2.47.62 1.33 7.37.87 9.05-1.8 6.59-6.3 20.52-10.77 25-3.16 3.11-3.16-3.86-2.8-4.58zM211.13 455.86c-1.14.83-.23.2.54-3.1.91-3.87 2.32-6.25 4-9.69 2.83-5.67.12-5.87 1.35-10.78.73-2.9 6.7-6.16 8.89-8.35.9-.9 4.71-5.74 6.46-4.58.92.62-.39 3.72-.54 4.58-.67 4.07-4.91 5.91-5.92 10-.72 2.88-1.32 6.4-2.69 9.16-.9 1.79-2.45 3-3 5.11-.82 3.31-.86 6.52-3.77 9.43s-4.6-2.3-5.32-1.78zM136.18 78c-8.05-7.09 63.38-62.3 67.28-27.27C204.86 63.24 141.88 83 136.18 78zM151.8 132.62c-2.26 2.23-6.92 6.68-10.59 6-2.72-.49-5.62-4.36-7.2-4.64a38.26 38.26 0 0 1-4.3-.76c-1-.3-3.23-1.07-2.13-2.47 3.45-4.39 9-3.14 13.59-4.57 3.7-1.15 6.81-12.23 12.85-11.16 8.74 1.55-.19 7.37-.56 9.91-.33 2.34.09 5.97-1.66 7.69zM137.7 112.61c-2-3.86-10 8-9.11 11.44 1.22 4.91 8.27-2.07 9.7-3.49 2.78-2.79.78-5.37-.59-7.95z"/></svg>
